<?xml version="1.0" ?><!DOCTYPE svg  PUBLIC '-//W3C//DTD SVG 1.1//EN'  'http://www.w3.org/Graphics/SVG/1.1/DTD/svg11.dtd'><svg enable-background="new 0 0 96 96" height="96px" id="Layer_1" version="1.1" viewBox="0 0 96 96" width="96px" xml:space="preserve" xmlns="http://www.w3.org/2000/svg" xmlns:xlink="http://www.w3.org/1999/xlink"><g><path d="   M37.938,66.506h14.325c2.242,0,4.061,0,4.061,0V41.907c0-2.243-1.818-4.062-4.061-4.062H20.668c-2.244,0-4.061,1.819-4.061,4.062   v24.599c0,0,2.586,0,4.83,0" fill="none" stroke="#000000" stroke-linecap="round" stroke-linejoin="round" stroke-miterlimit="10" stroke-width="2"/><path d="   M75.002,66.506h2.072c2.244,0,2.707,0,2.707,0s0-7.195,0-7.971s-2.918-8.441-4.066-11.209c-1.145-2.768-1.816-4.063-4.063-4.063   H56.324c0,0,0,1.82,0,4.063v19.18c0,0,0.396,0,2.176,0" fill="none" stroke="#000000" stroke-linecap="round" stroke-linejoin="round" stroke-miterlimit="10" stroke-width="2"/><line fill="none" stroke="#000000" stroke-linecap="round" stroke-miterlimit="10" stroke-width="2" x1="13.896" x2="16.607" y1="66.506" y2="66.506"/><line fill="none" stroke="#000000" stroke-linecap="round" stroke-miterlimit="10" stroke-width="2" x1="79.393" x2="82.104" y1="66.506" y2="66.506"/><line fill="none" stroke="#000000" stroke-linecap="round" stroke-miterlimit="10" stroke-width="2" x1="78.465" x2="69" y1="54.885" y2="54.885"/><circle cx="29.464" cy="66.506" fill="none" r="5.077" stroke="#000000" stroke-linecap="round" stroke-miterlimit="10" stroke-width="2"/><circle cx="66.869" cy="66.506" fill="none" r="5.077" stroke="#000000" stroke-linecap="round" stroke-miterlimit="10" stroke-width="2"/></g></svg>