<svg width="17" height="17" viewBox="0 0 18 18" fill="none" xmlns="http://www.w3.org/2000/svg">
    <path d="M8.97604 0.338001C9.00173 0.338064 9.02742 0.338126 9.05389 0.33819C9.4283 0.339719 9.7843 0.354584 10.148 0.45122C10.1713 0.457086 10.1946 0.462951 10.2187 0.468994C10.9949 0.665827 11.6931 1.02926 12.3036 1.54496C12.3333 1.56972 12.3629 1.59448 12.3934 1.61999C13.1173 2.24292 13.6205 3.11681 13.8861 4.02509C13.8988 4.06806 13.8988 4.06806 13.9117 4.1119C14.031 4.53816 14.0616 4.95846 14.0594 5.39867C14.0593 5.42437 14.0592 5.45006 14.0591 5.47654C14.0574 5.85083 14.0436 6.20593 13.946 6.56931C13.9394 6.59539 13.9328 6.62148 13.926 6.64835C13.7221 7.4429 13.3537 8.13717 12.8169 8.75679C12.7936 8.78423 12.7703 8.81168 12.7463 8.83996C12.5126 9.11037 12.2452 9.32702 11.9614 9.54291C12.0497 9.63108 12.1331 9.65469 12.2501 9.69885C13.7185 10.2716 15.0645 11.2771 15.999 12.5507C16.0208 12.5799 16.0208 12.5799 16.0431 12.6096C16.266 12.9084 16.4656 13.2176 16.6491 13.5419C16.6629 13.5661 16.6767 13.5902 16.6908 13.6151C17.2472 14.6022 17.5882 15.706 17.7227 16.8295C17.726 16.8553 17.7293 16.881 17.7327 16.9076C17.7568 17.1376 17.7239 17.342 17.62 17.5494C17.4812 17.7099 17.3648 17.7999 17.1504 17.8309C16.9362 17.8391 16.7443 17.8386 16.5722 17.6992C16.3415 17.4844 16.3064 17.2336 16.2689 16.9307C16.1138 15.698 15.6715 14.4951 14.9041 13.5077C14.8744 13.468 14.8448 13.4283 14.8152 13.3885C14.68 13.2077 14.5431 13.0345 14.3785 12.879C14.3164 12.8182 14.2609 12.7537 14.2048 12.6874C14.0837 12.5477 13.9512 12.4294 13.8091 12.3114C13.7825 12.2887 13.756 12.266 13.7286 12.2425C13.6315 12.161 13.5328 12.0818 13.4328 12.0038C13.4134 11.9886 13.3939 11.9734 13.3739 11.9578C12.4975 11.2817 11.4637 10.8649 10.3875 10.6366C10.3597 10.6305 10.3319 10.6244 10.3033 10.6181C8.52685 10.242 6.56665 10.6913 5.04385 11.6399C4.90409 11.7324 4.77146 11.8328 4.63908 11.9355C4.59935 11.9651 4.55956 11.9947 4.51972 12.0242C4.33874 12.1593 4.16537 12.2961 4.00968 12.4604C3.94883 12.5225 3.88429 12.5779 3.81788 12.634C3.67797 12.755 3.55962 12.8873 3.44149 13.0292C3.41873 13.0558 3.39597 13.0823 3.37253 13.1097C3.29086 13.2067 3.21157 13.3053 3.13354 13.4052C3.11833 13.4246 3.10311 13.444 3.08743 13.4639C2.31365 14.4648 1.85692 15.6762 1.6978 16.9238C1.65157 17.2726 1.57278 17.5637 1.29012 17.7908C1.09861 17.891 0.8784 17.8793 0.669942 17.8485C0.490205 17.7767 0.330621 17.6554 0.244706 17.4774C0.159622 17.1591 0.240752 16.7903 0.295697 16.4728C0.301331 16.4397 0.301331 16.4397 0.307078 16.406C0.5617 14.9258 1.17054 13.5545 2.10704 12.3798C2.12137 12.3615 2.13569 12.3433 2.15045 12.3244C2.55069 11.8171 3.02506 11.3301 3.54414 10.9443C3.58247 10.9149 3.62078 10.8854 3.65909 10.856C4.38032 10.3087 5.16648 9.90528 6.00774 9.57709C5.89691 9.46479 5.78364 9.35706 5.66558 9.25239C5.54793 9.14718 5.43364 9.04069 5.32341 8.92768C5.30396 8.90979 5.28451 8.89191 5.26447 8.87348C4.68312 8.32625 4.304 7.54486 4.08306 6.78934C4.07462 6.76069 4.06619 6.73205 4.0575 6.70253C3.93821 6.27625 3.90761 5.85598 3.90983 5.41576C3.9099 5.3901 3.90996 5.36444 3.91002 5.338C3.91155 4.96399 3.92643 4.60838 4.02318 4.24512C4.02905 4.22181 4.03492 4.19851 4.04097 4.17449C4.23802 3.39912 4.60185 2.70168 5.11811 2.09183C5.1429 2.06222 5.16769 2.03261 5.19323 2.0021C5.81684 1.27902 6.69168 0.776365 7.60096 0.511034C7.62964 0.50261 7.65831 0.494187 7.68786 0.485508C8.11461 0.366343 8.53534 0.335782 8.97604 0.338001ZM6.14461 3.04885C5.46976 3.89558 5.2172 4.90982 5.33384 5.98152C5.47564 6.9044 6.00026 7.74835 6.72723 8.32647C7.58382 8.9431 8.59324 9.20213 9.64487 9.0409C10.5771 8.8639 11.4302 8.32313 11.985 7.5541C12.5535 6.69565 12.8022 5.6933 12.6071 4.6682C12.3925 3.72057 11.8361 2.8742 11.0209 2.33549C9.39448 1.32937 7.41533 1.6324 6.14461 3.04885Z" fill="#686868" />
</svg>