<svg width="17" height="17" viewBox="0 0 17 17" fill="none" xmlns="http://www.w3.org/2000/svg">
    <path d="M6.25276 0.589741C6.29093 0.589022 6.29093 0.589022 6.32986 0.588288C6.37123 0.587798 6.37123 0.587798 6.41343 0.587299C6.44215 0.586918 6.47088 0.586537 6.50048 0.586145C7.10923 0.579642 7.68577 0.576916 8.27494 0.747116C8.33443 0.763025 8.39392 0.778927 8.45341 0.794825C9.2241 1.00878 9.94764 1.37085 10.5745 1.86844C10.5992 1.88792 10.5992 1.88792 10.6244 1.9078C11.0616 2.25616 11.4587 2.65615 11.7848 3.11099C11.8038 3.13737 11.8038 3.13737 11.8232 3.16429C12.1783 3.66205 12.4339 4.20039 12.6319 4.77782C12.6395 4.79975 12.6471 4.82168 12.655 4.84428C12.8243 5.34304 12.9192 5.88814 12.9345 6.41434C12.9353 6.43391 12.9361 6.45347 12.9369 6.47362C12.9894 7.90799 12.5287 9.26304 11.694 10.4147C11.8103 10.5541 11.9308 10.6864 12.0597 10.8141C12.0773 10.8317 12.0949 10.8493 12.113 10.8674C12.1715 10.9257 12.2301 10.984 12.2886 11.0422C12.3308 11.0842 12.3729 11.1262 12.4151 11.1683C12.5056 11.2585 12.5961 11.3487 12.6867 11.4389C12.83 11.5816 12.9731 11.7244 13.1162 11.8673C13.1653 11.9162 13.2143 11.9652 13.2634 12.0142C13.2879 12.0387 13.3125 12.0633 13.3378 12.0885C13.6707 12.4209 14.0038 12.7531 14.3372 13.0851C14.5624 13.3093 14.7874 13.5337 15.0121 13.7584C15.1309 13.8772 15.2499 13.9958 15.3691 14.1142C15.4811 14.2255 15.5929 14.3371 15.7045 14.4489C15.7454 14.4898 15.7864 14.5306 15.8276 14.5713C15.8839 14.627 15.9398 14.6831 15.9956 14.7392C16.0118 14.7551 16.0281 14.771 16.0448 14.7874C16.2117 14.9571 16.3103 15.1392 16.312 15.3811C16.3048 15.6186 16.2279 15.7792 16.0643 15.9491C16.0188 15.9892 16.0188 15.9892 15.93 16.0517C15.9085 16.0675 15.8871 16.0834 15.8651 16.0997C15.7476 16.158 15.6473 16.1616 15.5177 16.1634C15.4952 16.165 15.4727 16.1667 15.4495 16.1683C15.1583 16.1731 14.9483 15.9496 14.7502 15.7588C14.6547 15.665 14.5605 15.5699 14.4663 15.4748C14.4236 15.432 14.3809 15.3893 14.3382 15.3466C14.2232 15.2314 14.1085 15.1159 13.9938 15.0004C13.8736 14.8795 13.7531 14.7587 13.6326 14.638C13.405 14.4097 13.1775 14.1811 12.9502 13.9525C12.6912 13.692 12.4319 13.4319 12.1726 13.1717C11.6396 12.6369 11.1069 12.1017 10.5745 11.5664C10.4801 11.6119 10.3955 11.6651 10.3092 11.7247C8.9626 12.6522 7.31516 13.0142 5.7031 12.718C5.09803 12.6037 4.51399 12.4054 3.97226 12.1111C3.91989 12.0826 3.86709 12.055 3.81428 12.0274C3.3121 11.7547 2.86751 11.395 2.4656 10.9906C2.44983 10.9748 2.43406 10.9591 2.41782 10.9429C1.99029 10.5125 1.65084 10.0149 1.37635 9.47525C1.36666 9.45671 1.35697 9.43816 1.34699 9.41905C1.05112 8.84909 0.893682 8.23011 0.784687 7.60056C0.773841 7.53449 0.773841 7.53449 0.740949 7.47505C0.737319 7.43005 0.735509 7.3849 0.734633 7.33976C0.734058 7.31153 0.733483 7.2833 0.73289 7.25421C0.732468 7.22341 0.732046 7.1926 0.731612 7.16087C0.731149 7.12893 0.730686 7.09698 0.730208 7.06407C0.72214 6.37959 0.719434 5.7398 0.922491 5.08088C0.937999 5.02576 0.953482 4.97063 0.96894 4.9155C1.25075 3.95961 1.78436 3.12921 2.4656 2.41395C2.48978 2.38813 2.51396 2.3623 2.53888 2.3357C2.73969 2.127 2.96062 1.95076 3.19177 1.77752C3.21692 1.75854 3.24208 1.73955 3.268 1.71999C4.077 1.13192 4.98402 0.802988 5.96493 0.639395C6.22328 0.590258 6.22328 0.590258 6.25276 0.589741ZM3.7722 3.32289C3.70613 3.38374 3.70613 3.38374 3.62813 3.44566C3.51819 3.53464 3.43273 3.63841 3.34305 3.74741C3.30777 3.79013 3.30777 3.79013 3.27178 3.83371C3.07206 4.08138 2.91417 4.34397 2.76817 4.62629C2.75846 4.6448 2.74874 4.6633 2.73874 4.68237C2.1999 5.7217 2.13844 6.95767 2.47958 8.06847C2.85737 9.23329 3.65514 10.1995 4.74185 10.7687C5.83114 11.3134 7.08432 11.4123 8.24575 11.0428C9.42657 10.6433 10.3801 9.78773 10.9318 8.67284C11.4613 7.56251 11.5019 6.30718 11.1127 5.14824C11.056 4.98825 10.985 4.83759 10.9073 4.6869C10.8887 4.64949 10.8702 4.61209 10.8516 4.57467C10.6282 4.13209 10.3234 3.75963 9.96933 3.41405C9.94716 3.38926 9.94716 3.38926 9.92454 3.36397C9.28991 2.6778 8.30661 2.28822 7.39749 2.1715C7.37124 2.16759 7.34499 2.16369 7.31795 2.15966C6.04799 1.99609 4.70036 2.44962 3.7722 3.32289Z" fill="#5B5B5B" />
</svg>